<?xml version="1.0" encoding="UTF-8"?>
<!DOCTYPE svg PUBLIC "-//W3C//DTD SVG 1.1//EN" "http://www.w3.org/Graphics/SVG/1.1/DTD/svg11.dtd">
<svg xmlns="http://www.w3.org/2000/svg" version="1.1" width="24px" height="25px" style="shape-rendering:geometricPrecision; text-rendering:geometricPrecision; image-rendering:optimizeQuality; fill-rule:evenodd; clip-rule:evenodd" xmlns:xlink="http://www.w3.org/1999/xlink">
<g><path style="opacity:0.796" fill="#008080" d="M 18.5,-0.5 C 19.1667,-0.5 19.8333,-0.5 20.5,-0.5C 20.5,0.166667 20.5,0.833333 20.5,1.5C 18.8333,2.5 17.5,3.83333 16.5,5.5C 15.6236,5.63088 14.9569,5.29755 14.5,4.5C 15.8569,2.81439 17.1902,1.14772 18.5,-0.5 Z"/></g>
<g><path style="opacity:0.945" fill="#008080" d="M 20.5,1.5 C 21.1667,1.5 21.5,1.83333 21.5,2.5C 19.8333,3.5 18.5,4.83333 17.5,6.5C 16.8333,6.5 16.5,6.16667 16.5,5.5C 17.5,3.83333 18.8333,2.5 20.5,1.5 Z"/></g>
<g><path style="opacity:0.874" fill="#008080" d="M 21.5,2.5 C 22.1667,2.83333 22.8333,3.16667 23.5,3.5C 23.5,4.16667 23.5,4.83333 23.5,5.5C 21.5487,6.28229 20.0487,7.61562 19,9.5C 17.9614,8.75618 17.4614,7.75618 17.5,6.5C 18.5,4.83333 19.8333,3.5 21.5,2.5 Z"/></g>
<g><path style="opacity:0.919" fill="#008080" d="M 10.5,4.5 C 10.5,4.83333 10.5,5.16667 10.5,5.5C 7.83333,8.5 5.16667,11.5 2.5,14.5C 1.5,14.1667 0.833333,13.5 0.5,12.5C 3.84593,9.75033 7.17927,7.08366 10.5,4.5 Z"/></g>
<g><path style="opacity:0.892" fill="#008080" d="M 10.5,5.5 C 11.5,5.83333 12.1667,6.5 12.5,7.5C 9.23273,9.42725 6.23273,11.7606 3.5,14.5C 3.16667,14.5 2.83333,14.5 2.5,14.5C 5.16667,11.5 7.83333,8.5 10.5,5.5 Z"/></g>
<g><path style="opacity:0.924" fill="#008080" d="M 12.5,7.5 C 13.1667,7.5 13.5,7.83333 13.5,8.5C 10.5,10.8333 7.83333,13.5 5.5,16.5C 4.5,16.1667 3.83333,15.5 3.5,14.5C 6.23273,11.7606 9.23273,9.42725 12.5,7.5 Z"/></g>
<g><path style="opacity:0.827" fill="#008080" d="M 10.5,4.5 C 7.17927,7.08366 3.84593,9.75033 0.5,12.5C 0.166667,12.5 -0.166667,12.5 -0.5,12.5C -0.5,11.8333 -0.5,11.1667 -0.5,10.5C 2.95216,8.88253 5.61883,6.38253 7.5,3C 8.99762,2.4153 9.99762,2.9153 10.5,4.5 Z"/></g>
<g><path style="opacity:0.93" fill="#008080" d="M 13.5,8.5 C 14.1667,8.5 14.5,8.83333 14.5,9.5C 11.5,12.1667 8.5,14.8333 5.5,17.5C 5.5,17.1667 5.5,16.8333 5.5,16.5C 7.83333,13.5 10.5,10.8333 13.5,8.5 Z"/></g>
<g><path style="opacity:0.917" fill="#008080" d="M 14.5,9.5 C 15.1667,9.5 15.5,9.83333 15.5,10.5C 12.8333,13.5 10.1667,16.5 7.5,19.5C 6.5,19.1667 5.83333,18.5 5.5,17.5C 8.5,14.8333 11.5,12.1667 14.5,9.5 Z"/></g>
<g><path style="opacity:0.871" fill="#008080" d="M 15.5,10.5 C 17.0281,10.5173 17.5281,11.184 17,12.5C 13.3078,14.6921 10.4745,17.6921 8.5,21.5C 7.70245,21.0431 7.36912,20.3764 7.5,19.5C 10.1667,16.5 12.8333,13.5 15.5,10.5 Z"/></g>
<g><path style="opacity:0.792" fill="#008080" d="M 20.5,16.5 C 18.8333,17.5 17.5,18.8333 16.5,20.5C 14.9719,20.4827 14.4719,19.816 15,18.5C 16.3513,16.981 17.8513,15.6477 19.5,14.5C 20.2975,14.9569 20.6309,15.6236 20.5,16.5 Z"/></g>
<g><path style="opacity:0.962" fill="#008080" d="M 20.5,16.5 C 21.1667,16.5 21.5,16.8333 21.5,17.5C 20.5275,19.1392 19.1942,20.4726 17.5,21.5C 16.8333,21.5 16.5,21.1667 16.5,20.5C 17.5,18.8333 18.8333,17.5 20.5,16.5 Z"/></g>
<g><path style="opacity:0.842" fill="#008080" d="M 21.5,17.5 C 22.1667,17.8333 22.8333,18.1667 23.5,18.5C 23.5,19.1667 23.5,19.8333 23.5,20.5C 21.5,21.1667 20.1667,22.5 19.5,24.5C 19.1667,24.5 18.8333,24.5 18.5,24.5C 17.8902,23.609 17.5569,22.609 17.5,21.5C 19.1942,20.4726 20.5275,19.1392 21.5,17.5 Z"/></g>
</svg>
